HIERARCHY
ROOT Hips
{
  OFFSET 179.979 97.3047 303.174
  CHANNELS 6 Xposition Yposition Zposition Zrotation Xrotation Yrotation
  JOINT Spine
  {
    OFFSET 0.000859786 9.92346 -1.22733
    CHANNELS 3 Zrotation Xrotation Yrotation
    JOINT Spine1
    {
      OFFSET 0 11.732 0
      CHANNELS 3 Zrotation Xrotation Yrotation
      JOINT Spine2
      {
        OFFSET 0 13.4588 0
        CHANNELS 3 Zrotation Xrotation Yrotation
        JOINT Neck
        {
          OFFSET 2.54812e-05 15.0278 0.877907
          CHANNELS 3 Zrotation Xrotation Yrotation
          JOINT Head
          {
            OFFSET 0 10.3218 3.14243
            CHANNELS 3 Zrotation Xrotation Yrotation
            End Site
            {
              OFFSET 0 0 0
            }
          }
        }
        JOINT LeftShoulder
        {
          OFFSET 6.10582 9.10629 0.757062
          CHANNELS 3 Zrotation Xrotation Yrotation
          JOINT LeftArm
          {
            OFFSET 0 12.9223 0
            CHANNELS 3 Zrotation Xrotation Yrotation
            JOINT LeftForeArm
            {
              OFFSET 0 27.4047 0
              CHANNELS 3 Zrotation Xrotation Yrotation
              JOINT LeftHand
              {
                OFFSET -1.28204e-05 27.6145 0
                CHANNELS 3 Zrotation Xrotation Yrotation
                End Site
                {
                  OFFSET 0 0 0
                }
              }
            }
          }
        }
        JOINT RightShoulder
        {
          OFFSET -6.1057 9.10638 0.757076
          CHANNELS 3 Zrotation Xrotation Yrotation
          JOINT RightArm
          {
            OFFSET 0 12.9223 0
            CHANNELS 3 Zrotation Xrotation Yrotation
            JOINT RightForeArm
            {
              OFFSET 0 27.4047 0
              CHANNELS 3 Zrotation Xrotation Yrotation
              JOINT RightHand
              {
                OFFSET 1.28428e-05 27.6145 1.44975e-05
                CHANNELS 3 Zrotation Xrotation Yrotation
                End Site
                {
                  OFFSET 0 0 0
                }
              }
            }
          }
        }
      }
    }
  }
  JOINT LeftUpLeg
  {
    OFFSET 9.12387 -6.65719 -0.0554031
    CHANNELS 3 Zrotation Xrotation Yrotation
    JOINT LeftLeg
    {
      OFFSET 0 40.5994 0
      CHANNELS 3 Zrotation Xrotation Yrotation
      JOINT LeftFoot
      {
        OFFSET 0 42.099 0
        CHANNELS 3 Zrotation Xrotation Yrotation
        JOINT LeftToeBase
        {
          OFFSET 0 15.7216 0
          CHANNELS 3 Zrotation Xrotation Yrotation
          End Site
          {
            OFFSET 0 0 0
          }
        }
      }
    }
  }
  JOINT RightUpLeg
  {
    OFFSET -9.12503 -6.6556 -0.0553527
    CHANNELS 3 Zrotation Xrotation Yrotation
    JOINT RightLeg
    {
      OFFSET 0 40.5994 0
      CHANNELS 3 Zrotation Xrotation Yrotation
      JOINT RightFoot
      {
        OFFSET 0 42.099 0
        CHANNELS 3 Zrotation Xrotation Yrotation
        JOINT RightToeBase
        {
          OFFSET 0 15.7216 0
          CHANNELS 3 Zrotation Xrotation Yrotation
          End Site
          {
            OFFSET 0 0 0
          }
        }
      }
    }
  }
}
MOTION
Frames:	15
Frame Time:	0.0333333
-20.687 89.8514 -159.963 2.349 -6.08069 -168.745 0.513352 3.94044 0.832292 0.913216 21.8354 1.47676 0.721051 28.4276 1.55951 -4.83658 21.4817 9.62011 -6.50998 -17.4309 8.16705 -99.2002 -5.42936 91.9677 43.6524 62.506 -19.3529 77.8481 -7.48202 0.448736 -3.16552 -17.156 27.3754 90.4328 6.65453 -92.3724 -58.9089 47.7331 42.1583 -126.183 4.04511 -0.333463 -6.3706 -22.9464 -22.3943 -168.584 45.8063 -21.6862 6.20128 -53.0975 7.95303 -1.14174 76.3403 5.2678 -0.965253 26.367 -3.6023 173.907 25.4322 5.85867 1.70852 -57.7005 9.45095 -136.312 82.8975 146.11 0.963536 26.3682 3.55537 
-20.8488 90.0209 -160.333 2.64119 -6.21084 -168.704 0.569333 3.94067 0.877666 1.02239 21.8369 1.54432 0.821326 28.4289 1.63088 -4.51163 20.7316 9.16417 -5.94663 -17.365 7.82395 -99.2787 -5.44156 91.9724 42.8264 62.2893 -18.4575 77.4787 -7.84364 0.425693 -3.48078 -15.4169 29.709 90.3603 7.10597 -92.3993 -63.0425 46.672 48.0049 -127.613 4.24599 -0.364341 -6.78248 -26.9304 -18.1416 -168.537 45.7178 -21.4052 6.23201 -53.0397 7.87432 -0.993148 76.4727 5.03141 -0.965253 26.367 -3.6023 173.968 24.8564 6.02277 2.08481 -56.7916 9.60034 -136.48 83.0089 146.182 0.963536 26.3682 3.55537 
-20.9761 90.1729 -160.664 2.84385 -6.32391 -168.538 0.62803 3.95761 0.879302 1.14616 21.8711 1.52051 0.94811 28.4632 1.60595 -4.21966 19.7557 8.71116 -5.64453 -17.1225 7.49241 -99.286 -5.4378 91.9738 42.0705 62.0687 -17.7003 77.3844 -7.96121 0.418975 -3.25542 -14.4751 30.5739 90.4224 7.18467 -92.4206 -65.5089 45.4987 52.1983 -127.612 4.37867 -0.37071 -8.30208 -27.7938 -18.6523 -168.68 45.7132 -21.0225 6.31733 -53.015 7.81575 -0.705302 76.4129 4.68577 -0.965253 26.367 -3.6023 173.959 24.3088 6.31705 2.252 -55.9921 9.60693 -136.69 83.1003 146.381 0.963536 26.3682 3.55537 
-21.0735 90.2893 -160.952 2.94263 -6.45813 -168.297 0.662229 3.96365 0.836848 1.22717 21.8831 1.41729 1.04263 28.4755 1.49704 -4.06805 18.9715 8.34949 -5.63403 -16.9662 7.20012 -99.3401 -5.4538 91.9757 41.2287 61.755 -17.2246 77.6069 -7.74049 0.432919 -3.49017 -13.6153 30.2535 90.5831 7.14423 -92.4523 -65.4415 44.4269 52.9467 -127.135 4.3295 -0.359465 -9.40365 -27.621 -20.8561 -168.878 45.7693 -20.5824 6.11452 -53.0428 7.52595 -0.221196 76.2755 4.25514 -0.965253 26.367 -3.6023 173.892 23.8763 6.60253 2.29785 -55.3748 9.58266 -136.875 83.144 146.648 0.963536 26.3682 3.55537 
-21.1447 90.3965 -161.203 3.00244 -6.61402 -168.053 0.660987 3.94992 0.798312 1.23252 21.8552 1.33871 1.05832 28.4478 1.41397 -3.62074 18.5202 8.03229 -5.95762 -16.6902 7.13071 -99.1878 -5.30778 91.9878 40.3858 61.5129 -17.3305 78.1446 -7.27592 0.464444 -4.07105 -12.6326 29.9854 91.0342 6.70241 -92.5031 -63.3225 43.0607 50.5403 -126.264 4.10629 -0.337693 -9.44971 -26.6252 -24.6237 -169.013 45.8771 -20.5485 6.19175 -53.0725 7.59447 -0.0163876 76.0274 4.19975 -0.965253 26.367 -3.6023 173.858 23.5543 6.74657 2.34446 -54.8595 9.65011 -136.541 83.1815 146.457 0.963536 26.3682 3.55537 
-21.2061 90.5204 -161.427 3.05127 -6.82625 -167.801 0.610012 3.92548 0.725507 1.13967 21.8057 1.2125 0.98208 28.3986 1.28054 -3.50038 18.2458 8.13838 -6.28717 -16.2356 7.35098 -98.9704 -5.20629 91.9859 39.5258 61.3824 -18.19 79.1467 -6.52117 0.519522 -4.34588 -11.7073 30.6398 91.3545 6.29006 -92.5222 -60.1466 41.9866 47.8985 -125.459 3.87279 -0.366972 -9.16515 -22.2573 -29.0028 -169.039 45.9905 -20.7103 6.11155 -53.0323 7.64364 0.0948216 75.7293 4.39406 -0.965253 26.367 -3.6023 173.809 23.3065 6.8389 2.44709 -54.3277 9.78562 -135.843 83.243 145.9 0.963536 26.3682 3.55537 
-21.2542 90.6788 -161.618 3.08698 -7.10509 -167.531 0.538843 3.92162 0.63352 1.0079 21.7964 1.05609 0.870853 28.3897 1.11535 -3.84928 18.0584 8.80658 -6.34779 -15.8877 7.90298 -98.9239 -5.37054 91.9535 39.0078 61.2457 -19.8307 80.587 -5.38319 0.600023 -4.3018 -11.0389 31.3821 91.1643 5.53414 -92.4097 -57.505 41.2719 47.2243 -125.307 3.79917 -0.320556 -10.6358 -17.9549 -29.6123 -169.126 46.0398 -20.837 5.98739 -52.7388 7.72844 -0.0950792 75.4534 4.84089 -0.965253 26.367 -3.6023 173.703 23.1108 6.90656 2.69738 -53.7179 10.0387 -134.753 83.3362 144.889 0.963536 26.3682 3.55537 
-21.2912 90.8297 -161.749 3.15069 -7.53137 -167.149 0.483459 3.9184 0.5613 0.90551 21.7894 0.932971 0.784604 28.3829 0.985329 -4.43062 18.319 9.81144 -6.17116 -15.9138 8.65391 -99.0698 -5.40765 91.9599 38.3212 61.0838 -21.6913 82.2975 -3.92737 0.699336 -3.92697 -11.2194 31.5647 91.1522 4.811 -92.3342 -54.9705 40.7222 48.0645 -126.544 4.05209 -0.338945 -11.9594 -18.1174 -25.5855 -169.593 46.1263 -20.5275 6.05954 -52.0875 7.87932 -0.437124 75.4701 5.21516 -0.965253 26.367 -3.6023 173.53 23.0787 7.41053 2.56899 -53.1063 9.88337 -134.356 83.4382 144.53 0.963536 26.3682 3.55537 
-21.3139 90.9372 -161.826 3.13958 -8.25763 -166.728 0.408526 3.87798 0.525726 0.754413 21.7081 0.894436 0.638666 28.3017 0.944404 -4.70566 19.0336 10.7771 -6.27665 -15.8681 9.53914 -99.0856 -5.52269 91.9413 38.084 61.097 -23.5748 84.1634 -2.58862 0.799694 -3.09768 -12.0337 31.3376 91.3974 4.51047 -92.3463 -53.6996 40.8292 51.813 -128.841 4.52927 -0.398557 -10.9763 -21.7713 -18.6523 -170.441 46.6652 -19.7884 6.26163 -51.5086 7.91551 -0.432731 75.299 5.05302 -0.965253 26.367 -3.6023 173.166 23.4653 7.98615 2.43465 -52.6923 9.72993 -134.533 83.4642 144.745 0.963536 26.3682 3.55537 
-21.3472 91.0722 -161.843 3.25901 -9.24968 -166.459 0.346654 3.82598 0.583627 0.612095 21.6038 1.0421 0.477216 28.1971 1.09988 -4.90794 20.5931 10.4307 -5.163 -15.5946 8.96615 -99.0643 -5.75126 91.9 38.8615 61.092 -25.2839 86.1674 -2.0504 0.880453 -2.31578 -13.1199 30.8754 90.9788 4.63909 -92.2866 -55.8566 42.1075 60.3516 -131.92 5.4041 -0.474266 -5.6991 -25.5369 -7.55498 -171.017 47.6445 -18.9709 6.02226 -51.1052 7.39441 0.280644 74.6487 4.22119 -0.965253 26.367 -3.6023 172.85 24.4096 8.06445 2.79348 -52.4975 10.05 -132.012 83.7353 142.22 0.963536 26.3682 3.55537 
-21.3646 91.1859 -161.831 3.71364 -10.1082 -166.267 0.375488 3.85869 0.715779 0.646036 21.6701 1.30068 0.47725 28.2628 1.37295 -5.42996 23.1758 7.94837 -1.68178 -15.6995 5.68935 -99.1163 -5.73589 91.907 40.1774 60.9669 -27.4854 87.9909 -1.59513 0.953639 -1.39676 -14.3507 29.9764 90.8615 5.56891 -92.3581 -60.9947 42.3008 66.7399 -133.728 5.48854 -0.528273 -2.09098 -33.8559 0.957805 -170.767 48.4347 -18.8447 5.50163 -50.6753 6.8201 0.805305 74.4072 3.78521 -0.965253 26.367 -3.6023 172.961 25.3439 8.46173 2.56594 -52.2989 9.73222 -129.277 84.1692 139.44 0.963536 26.3682 3.55537 
-21.4058 91.3224 -161.785 4.28015 -10.8754 -165.909 0.45664 3.97084 0.821337 0.795199 21.8956 1.48027 0.60247 28.4878 1.56339 -5.93639 26.2385 3.38146 4.28928 -16.1604 -0.114501 -99.1395 -5.39648 91.968 40.9622 60.9419 -29.1865 89.6283 -1.09495 1.023 0.29764 -16.5987 27.5037 90.8173 7.11131 -92.5009 -65.8795 41.4265 66.3936 -132.3 5.21405 -0.483221 -9.30404 -49.5698 -3.0064 -170.391 49.0008 -19.3169 5.38206 -49.9768 6.92066 0.569079 74.3852 4.30593 -0.965253 26.367 -3.6023 173.01 25.9529 9.00121 2.78018 -51.7146 9.71358 -127.313 84.474 137.308 0.963536 26.3682 3.55537 
-21.5419 91.3626 -161.837 4.8103 -11.7085 -165.469 0.546625 4.06501 0.901231 0.968384 22.0853 1.60294 0.759174 28.6771 1.69377 -4.59884 28.0319 -2.62482 8.40842 -16.2071 -6.25517 -99.3254 -4.99205 92.0554 40.5134 60.9609 -29.2815 90.6936 -0.724852 1.06982 2.37756 -18.9432 25.738 90.7701 7.93681 -92.5714 -67.4848 41.4951 59.8579 -125.845 4.77933 -0.352613 -24.5469 -50.2698 -21.7719 -170.313 49.6247 -19.5109 5.41068 -49.4321 7.12902 0.288198 74.8051 4.82176 -0.965253 26.367 -3.6023 172.827 26.4785 9.63578 3.26434 -51.1562 9.904 -127.971 84.5298 137.828 0.963536 26.3682 3.55537 
-21.8435 91.3928 -162.023 5.35526 -12.3067 -165.323 0.614072 4.19594 0.906662 1.1091 22.3479 1.58217 0.902044 28.9397 1.673 -2.94633 28.6243 -7.70056 9.67614 -17.6672 -10.8011 -99.6497 -4.60681 92.1538 37.8015 61.1454 -27.3552 91.4375 -0.551344 1.10015 4.12998 -20.6818 25.0469 91.0745 8.14344 -92.6556 -65.6019 41.728 49.53 -117.799 3.90935 -0.1876 -13.6876 -29.7627 -28.0812 -170.317 50.0296 -19.2573 5.54061 -49.1818 7.13167 0.456062 75.5133 4.65393 -0.965253 26.367 -3.6023 172.886 26.7007 9.95882 3.41507 -50.541 9.85375 -128.084 84.6635 137.976 0.963536 26.3682 3.55537 
-22.2525 91.4202 -162.313 5.54912 -12.5614 -165.807 0.540806 4.36925 0.819435 0.970771 22.6932 1.43602 0.782364 29.2855 1.51975 -3.53203 25.8975 -8.53208 9.81851 -17.2167 -11.9275 -99.6627 -4.56061 92.1633 33.593 61.7372 -24.058 91.0143 -0.735241 1.08026 5.46301 -21.7043 25.1265 91.3071 7.55583 -92.6429 -64.2539 40.5865 39.8322 -109.235 2.07963 -0.0197051 6.4293 -0.150101 -42.2092 -170.335 50.0472 -18.8372 5.47978 -49.3598 6.64769 1.45221 76.1888 3.46713 -0.965253 26.367 -3.6023 173.239 26.6171 9.13697 3.2167 -50.0135 9.82654 -126.897 84.7309 137.183 0.963536 26.3682 3.55537 
